<mxfile host="app.diagrams.net" agent="Mozilla/5.0 (Windows NT 10.0; Win64; x64) AppleWebKit/537.36 (KHTML, like Gecko) Chrome/130.0.0.0 Safari/537.36" version="24.7.8">
  <diagram name="Page-1" id="eA5lEixEF38XFiQJNgYX">
    <mxGraphModel dx="989" dy="615" grid="1" gridSize="10" guides="1" tooltips="1" connect="1" arrows="1" fold="1" page="1" pageScale="1" pageWidth="827" pageHeight="1169" math="0" shadow="0">
      <root>
        <mxCell id="0" />
        <mxCell id="1" parent="0" />
        <mxCell id="pfIxqtV9XxNWEfwc1PJr-10" value="" style="rounded=0;whiteSpace=wrap;html=1;" vertex="1" parent="1">
          <mxGeometry x="280" y="280" width="520" height="360" as="geometry" />
        </mxCell>
        <mxCell id="pfIxqtV9XxNWEfwc1PJr-1" value="Battery-Powered Austevoll Sensors" style="rounded=0;whiteSpace=wrap;html=1;" vertex="1" parent="1">
          <mxGeometry x="320" y="520" width="160" height="80" as="geometry" />
        </mxCell>
        <mxCell id="pfIxqtV9XxNWEfwc1PJr-2" value="Azure Digital Twin" style="rounded=0;whiteSpace=wrap;html=1;" vertex="1" parent="1">
          <mxGeometry x="320" y="320" width="160" height="80" as="geometry" />
        </mxCell>
        <mxCell id="pfIxqtV9XxNWEfwc1PJr-4" value="" style="endArrow=classic;html=1;rounded=0;exitX=0.5;exitY=0;exitDx=0;exitDy=0;entryX=0.5;entryY=1;entryDx=0;entryDy=0;" edge="1" parent="1">
          <mxGeometry width="50" height="50" relative="1" as="geometry">
            <mxPoint x="388" y="520" as="sourcePoint" />
            <mxPoint x="388" y="400" as="targetPoint" />
          </mxGeometry>
        </mxCell>
        <mxCell id="pfIxqtV9XxNWEfwc1PJr-5" value="Dashboard" style="rounded=0;whiteSpace=wrap;html=1;" vertex="1" parent="1">
          <mxGeometry x="320" y="120" width="160" height="80" as="geometry" />
        </mxCell>
        <mxCell id="pfIxqtV9XxNWEfwc1PJr-7" value="" style="endArrow=none;html=1;rounded=0;exitX=0.5;exitY=0;exitDx=0;exitDy=0;entryX=0.5;entryY=1;entryDx=0;entryDy=0;" edge="1" parent="1" source="pfIxqtV9XxNWEfwc1PJr-2" target="pfIxqtV9XxNWEfwc1PJr-5">
          <mxGeometry width="50" height="50" relative="1" as="geometry">
            <mxPoint x="600" y="270" as="sourcePoint" />
            <mxPoint x="650" y="220" as="targetPoint" />
          </mxGeometry>
        </mxCell>
        <mxCell id="pfIxqtV9XxNWEfwc1PJr-9" value="Simulator" style="shape=image;html=1;verticalAlign=top;verticalLabelPosition=bottom;labelBackgroundColor=#ffffff;imageAspect=0;aspect=fixed;image=https://cdn1.iconfinder.com/data/icons/seo-and-web-development-6/32/development_setting_gear_cogwheel-71-128.png" vertex="1" parent="1">
          <mxGeometry x="700" y="340" width="40" height="40" as="geometry" />
        </mxCell>
        <mxCell id="pfIxqtV9XxNWEfwc1PJr-11" value="DT" style="text;html=1;align=center;verticalAlign=middle;whiteSpace=wrap;rounded=0;fontSize=20;" vertex="1" parent="1">
          <mxGeometry x="730" y="290" width="60" height="30" as="geometry" />
        </mxCell>
        <mxCell id="pfIxqtV9XxNWEfwc1PJr-12" value="" style="endArrow=classic;html=1;rounded=0;exitX=0.75;exitY=1;exitDx=0;exitDy=0;entryX=0.75;entryY=0;entryDx=0;entryDy=0;" edge="1" parent="1">
          <mxGeometry width="50" height="50" relative="1" as="geometry">
            <mxPoint x="410.0000000000002" y="400" as="sourcePoint" />
            <mxPoint x="410.0000000000002" y="520" as="targetPoint" />
          </mxGeometry>
        </mxCell>
        <mxCell id="pfIxqtV9XxNWEfwc1PJr-13" value="" style="endArrow=none;html=1;rounded=0;exitX=1;exitY=0.5;exitDx=0;exitDy=0;entryX=0;entryY=0.5;entryDx=0;entryDy=0;" edge="1" parent="1" source="pfIxqtV9XxNWEfwc1PJr-2" target="pfIxqtV9XxNWEfwc1PJr-9">
          <mxGeometry width="50" height="50" relative="1" as="geometry">
            <mxPoint x="580" y="490" as="sourcePoint" />
            <mxPoint x="630" y="440" as="targetPoint" />
          </mxGeometry>
        </mxCell>
        <mxCell id="pfIxqtV9XxNWEfwc1PJr-14" value="Domain Expert" style="shape=umlActor;verticalLabelPosition=bottom;verticalAlign=top;html=1;outlineConnect=0;" vertex="1" parent="1">
          <mxGeometry x="610" y="105" width="60" height="110" as="geometry" />
        </mxCell>
        <mxCell id="pfIxqtV9XxNWEfwc1PJr-15" value="" style="endArrow=classic;html=1;rounded=0;entryX=0.692;entryY=0;entryDx=0;entryDy=0;entryPerimeter=0;" edge="1" parent="1" target="pfIxqtV9XxNWEfwc1PJr-10">
          <mxGeometry width="50" height="50" relative="1" as="geometry">
            <mxPoint x="640" y="240" as="sourcePoint" />
            <mxPoint x="780" y="170" as="targetPoint" />
          </mxGeometry>
        </mxCell>
        <mxCell id="pfIxqtV9XxNWEfwc1PJr-16" value="" style="endArrow=classic;html=1;rounded=0;entryX=1;entryY=0.5;entryDx=0;entryDy=0;" edge="1" parent="1" source="pfIxqtV9XxNWEfwc1PJr-14" target="pfIxqtV9XxNWEfwc1PJr-5">
          <mxGeometry width="50" height="50" relative="1" as="geometry">
            <mxPoint x="600" y="160" as="sourcePoint" />
            <mxPoint x="790" y="160" as="targetPoint" />
          </mxGeometry>
        </mxCell>
        <mxCell id="pfIxqtV9XxNWEfwc1PJr-17" value="Sensor Configuration" style="whiteSpace=wrap;html=1;shape=mxgraph.basic.document;fontSize=6;" vertex="1" parent="1">
          <mxGeometry x="700" y="430" width="40" height="50" as="geometry" />
        </mxCell>
        <mxCell id="pfIxqtV9XxNWEfwc1PJr-18" value="" style="endArrow=classic;html=1;rounded=0;" edge="1" parent="1" target="pfIxqtV9XxNWEfwc1PJr-17">
          <mxGeometry width="50" height="50" relative="1" as="geometry">
            <mxPoint x="720" y="400" as="sourcePoint" />
            <mxPoint x="670" y="520" as="targetPoint" />
          </mxGeometry>
        </mxCell>
        <mxCell id="pfIxqtV9XxNWEfwc1PJr-19" value="Sensors from Austevoll send measurement data to the DT. The DT sends configurations to the sensors. Communication happens acoustically." style="text;html=1;align=left;verticalAlign=middle;whiteSpace=wrap;rounded=0;fontSize=10;" vertex="1" parent="1">
          <mxGeometry x="417" y="476" width="180" height="30" as="geometry" />
        </mxCell>
        <mxCell id="pfIxqtV9XxNWEfwc1PJr-20" value="" style="endArrow=classic;html=1;rounded=0;exitX=0;exitY=0.2;exitDx=0;exitDy=0;exitPerimeter=0;entryX=0.802;entryY=1.002;entryDx=0;entryDy=0;entryPerimeter=0;" edge="1" parent="1" source="pfIxqtV9XxNWEfwc1PJr-17" target="pfIxqtV9XxNWEfwc1PJr-2">
          <mxGeometry width="50" height="50" relative="1" as="geometry">
            <mxPoint x="650" y="580" as="sourcePoint" />
            <mxPoint x="700" y="530" as="targetPoint" />
            <Array as="points">
              <mxPoint x="448" y="440" />
            </Array>
          </mxGeometry>
        </mxCell>
        <mxCell id="pfIxqtV9XxNWEfwc1PJr-21" value="The DT&#39;s simulator produces predictions about the data coming from Austevoll." style="text;html=1;align=left;verticalAlign=middle;whiteSpace=wrap;rounded=0;fontSize=10;" vertex="1" parent="1">
          <mxGeometry x="568" y="403" width="140" height="30" as="geometry" />
        </mxCell>
        <mxCell id="pfIxqtV9XxNWEfwc1PJr-22" value="The domain expert interacts with the DT via a dashboard and supplies it with appropriate error thresholds for his domain to optimize sensor configurations." style="text;html=1;align=left;verticalAlign=middle;whiteSpace=wrap;rounded=0;fontSize=10;" vertex="1" parent="1">
          <mxGeometry x="680" y="145" width="120" height="30" as="geometry" />
        </mxCell>
        <mxCell id="pfIxqtV9XxNWEfwc1PJr-23" value="Bandwidth between the two is restricted." style="text;html=1;align=left;verticalAlign=middle;whiteSpace=wrap;rounded=0;fontSize=10;" vertex="1" parent="1">
          <mxGeometry x="326" y="476" width="60" height="30" as="geometry" />
        </mxCell>
      </root>
    </mxGraphModel>
  </diagram>
</mxfile>
